<!DOCTYPE svg PUBLIC "-//W3C//DTD SVG 20010904//EN" "http://www.w3.org/TR/2001/REC-SVG-20010904/DTD/svg10.dtd">
<svg xmlns="http://www.w3.org/2000/svg" version="1.0" width="250.0pt" height="250.0pt" viewBox="0 0 125.000000 125.000000" preserveAspectRatio="xMidYMid meet">
<metadata>
Created by potrace 1.13, written by Peter Selinger 2001-2015
</metadata>
<g transform="translate(0.000000,125.000000) scale(0.100000,-0.100000)" fill="#FFC4C4" stroke="black" stroke-width="5">
<path d="M295 1172 c-22 -10 -57 -38 -77 -60 l-38 -42 0 -370 0 -369 57 59 c99 101 155 94 358 -41 127 -85 199 -119 252 -119 42 0 110 38 148 83 l35 41 0 370 0 371 -45 -51 c-100 -115 -188 -109 -372 27 -141 105 -242 137 -318 101z"/>
</g>
</svg>
