<!DOCTYPE svg PUBLIC "-//W3C//DTD SVG 20010904//EN" "http://www.w3.org/TR/2001/REC-SVG-20010904/DTD/svg10.dtd">
<svg xmlns="http://www.w3.org/2000/svg" version="1.0" width="250.0pt" height="250.0pt" viewBox="0 0 125.000000 125.000000" preserveAspectRatio="xMidYMid meet">
<metadata>
Created by potrace 1.13, written by Peter Selinger 2001-2015
</metadata>
<g transform="translate(0.000000,125.000000) scale(0.100000,-0.100000)" fill="#A8D08C" stroke="black" stroke-width="5">
<path d="M569 1015 l-74 -95 -116 0 -117 0 14 -57 c7 -32 19 -85 25 -119 l12 -61 -73 -92 c-40 -51 -71 -94 -69 -95 2 -2 50 -27 106 -55 59 -29 104 -58 106 -68 3 -10 15 -62 27 -115 12 -54 23 -98 26 -98 2 0 50 23 107 51 l103 51 102 -51 c56 -28 104 -51 106 -51 2 0 14 44 26 98 12 53 24 105 27 115 2 10 47 39 106 68 56 28 103 53 105 54 2 2 -28 44 -67 94 -39 50 -71 99 -71 108 0 10 11 64 24 121 l23 102 -117 0 -117 0 -72 95 c-40 52 -74 95 -76 95 -1 0 -36 -43 -76 -95z"/>
</g>
</svg>
