<!DOCTYPE svg PUBLIC "-//W3C//DTD SVG 20010904//EN" "http://www.w3.org/TR/2001/REC-SVG-20010904/DTD/svg10.dtd">
<svg xmlns="http://www.w3.org/2000/svg" version="1.0" width="250.0pt" height="250.0pt" viewBox="0 0 125.000000 125.000000" preserveAspectRatio="xMidYMid meet">
<metadata>
Created by potrace 1.13, written by Peter Selinger 2001-2015
</metadata>
<g transform="translate(0.000000,125.000000) scale(0.100000,-0.100000)" fill="#FFC000" stroke="black" stroke-width="5">
<path d="M250 1100 c-100 -34 -170 -134 -170 -243 0 -100 74 -241 189 -360 95 -100 328 -277 364 -277 7 0 53 27 102 61 279 190 432 382 443 556 8 120 -34 200 -132 251 -69 36 -167 37 -243 3 -47 -21 -125 -92 -161 -146 -8 -13 -14 -16 -18 -8 -14 32 -76 102 -113 127 -44 31 -125 56 -176 56 -16 -1 -55 -9 -85 -20z"/>
</g>
</svg>
