<!DOCTYPE svg PUBLIC "-//W3C//DTD SVG 20010904//EN" "http://www.w3.org/TR/2001/REC-SVG-20010904/DTD/svg10.dtd">
<svg xmlns="http://www.w3.org/2000/svg" version="1.0" width="250.0pt" height="250.0pt" viewBox="0 0 125.000000 125.000000" preserveAspectRatio="xMidYMid meet">
<metadata>
Created by potrace 1.13, written by Peter Selinger 2001-2015
</metadata>
<g transform="translate(0.000000,125.000000) scale(0.100000,-0.100000)" fill="#FF00FF" stroke="black" stroke-width="5">
<path d="M423 1178 c13 -88 30 -268 26 -272 -3 -3 -45 6 -94 19 -49 14 -90 23 -91 22 -2 -2 19 -36 46 -77 28 -41 50 -78 50 -82 0 -5 -19 -8 -42 -9 -64 -1 -285 -34 -273 -41 6 -3 83 -29 173 -57 89 -29 162 -56 162 -61 0 -4 -55 -40 -122 -79 -106 -61 -119 -71 -91 -71 32 0 235 -30 241 -35 8 -7 -24 -52 -99 -141 -44 -52 -74 -94 -67 -94 7 0 67 16 133 35 66 19 124 35 129 35 8 0 3 -107 -10 -225 l-6 -50 64 88 c34 49 69 100 77 115 13 25 14 25 28 6 7 -10 20 -27 28 -36 8 -10 31 -43 51 -73 21 -30 39 -54 40 -52 2 2 13 53 25 113 12 60 23 110 24 112 4 4 48 -18 55 -28 3 -4 26 -19 51 -34 l46 -26 -23 112 c-13 62 -23 117 -24 122 0 8 157 2 260 -10 l45 -5 -55 35 c-57 37 -76 44 -64 24 4 -7 3 -8 -5 -4 -6 4 -9 11 -6 15 2 5 -41 38 -96 75 l-100 67 23 18 c13 9 53 39 91 65 37 26 67 51 67 56 0 12 -117 33 -152 26 -20 -4 -28 -3 -20 3 10 6 7 10 -12 15 -14 3 -26 11 -26 17 0 6 -5 7 -12 3 -7 -4 -8 -3 -4 5 4 6 11 9 16 6 4 -3 36 46 71 107 34 62 70 124 79 138 27 38 80 130 76 130 -3 0 -35 -25 -71 -55 -37 -30 -71 -55 -75 -55 -5 0 -38 -27 -74 -60 -37 -33 -70 -60 -75 -60 -4 0 -12 24 -18 53 -6 28 -17 80 -24 115 -7 34 -15 62 -19 62 -8 0 -108 -114 -140 -159 -22 -31 -24 -32 -36 -16 -8 10 -26 32 -41 49 -16 17 -48 56 -72 86 l-44 55 6 -37z"/>
</g>
</svg>
