<!DOCTYPE svg PUBLIC "-//W3C//DTD SVG 20010904//EN" "http://www.w3.org/TR/2001/REC-SVG-20010904/DTD/svg10.dtd">
<svg xmlns="http://www.w3.org/2000/svg" version="1.0" width="250.0pt" height="250.0pt" viewBox="0 0 125.000000 125.000000" preserveAspectRatio="xMidYMid meet">
<metadata>
Created by potrace 1.13, written by Peter Selinger 2001-2015
</metadata>
<g transform="translate(0.000000,125.000000) scale(0.100000,-0.100000)" fill="#00FF99" stroke="black" stroke-width="5">
<path d="M654 1111 c-18 -11 -34 -25 -36 -32 -3 -9 -12 -7 -35 5 -56 28 -131 14 -165 -32 -11 -14 -28 -17 -90 -17 -72 0 -79 -2 -108 -30 -40 -38 -66 -88 -74 -146 -5 -35 -13 -49 -35 -62 -59 -34 -78 -130 -41 -200 17 -32 19 -43 9 -81 -8 -31 -8 -54 0 -84 12 -43 60 -92 90 -92 10 0 33 -18 51 -41 54 -68 133 -94 206 -67 30 11 35 9 73 -24 85 -72 188 -53 246 46 25 43 27 44 56 34 72 -25 156 30 177 115 10 38 19 49 56 71 82 48 121 178 81 272 -9 23 -13 50 -9 73 9 59 -11 115 -61 166 -25 25 -45 49 -45 55 0 5 -14 25 -31 44 -45 52 -101 57 -161 14 -14 -10 -21 -9 -36 5 -30 28 -82 31 -118 8z"/>
</g>
</svg>
