<!DOCTYPE svg PUBLIC "-//W3C//DTD SVG 20010904//EN" "http://www.w3.org/TR/2001/REC-SVG-20010904/DTD/svg10.dtd">
<svg xmlns="http://www.w3.org/2000/svg" version="1.0" width="250.0pt" height="250.0pt" viewBox="0 0 125.000000 125.000000" preserveAspectRatio="xMidYMid meet">
<metadata>
Created by potrace 1.13, written by Peter Selinger 2001-2015
</metadata>
<g transform="translate(0.000000,125.000000) scale(0.100000,-0.100000)" fill="#0070C0" stroke="black" stroke-width="5">
<path d="M242 977 l-122 -122 120 -120 c66 -66 120 -123 120 -128 0 -4 -54 -60 -120 -125 l-120 -117 121 -124 122 -123 121 121 c67 67 126 121 131 121 5 0 65 -55 133 -123 l123 -122 120 124 120 124 -123 124 -123 123 122 123 122 122 -119 123 -118 122 -129 -124 -128 -125 -125 125 -125 124 -123 -123z"/>
</g>
</svg>
