<!DOCTYPE svg PUBLIC "-//W3C//DTD SVG 20010904//EN" "http://www.w3.org/TR/2001/REC-SVG-20010904/DTD/svg10.dtd">
<svg xmlns="http://www.w3.org/2000/svg" version="1.0" width="250.0pt" height="250.0pt" viewBox="0 0 125.000000 125.000000" preserveAspectRatio="xMidYMid meet">
<metadata>
Created by potrace 1.13, written by Peter Selinger 2001-2015
</metadata>
<g transform="translate(0.000000,125.000000) scale(0.100000,-0.100000)" fill="#FF3300" stroke="black" stroke-width="5">
<path d="M548 979 l-65 -184 -214 -3 -213 -2 173 -116 c137 -92 171 -119 166 -132 -40 -101 -122 -351 -112 -346 6 4 79 52 161 107 83 55 157 102 165 104 9 2 90 -46 180 -107 90 -61 164 -110 166 -108 1 2 -26 82 -61 178 -35 96 -63 178 -63 182 -1 4 74 58 165 120 l166 113 -208 5 -209 5 -58 165 c-32 91 -61 174 -66 184 -5 14 -24 -29 -73 -165z"/>
</g>
</svg>
